<mxfile host="app.diagrams.net" modified="2022-07-13T11:49:41.633Z" agent="5.0 (Windows NT 10.0; Win64; x64) AppleWebKit/537.36 (KHTML, like Gecko) Chrome/103.0.0.0 Safari/537.36" etag="Q_RX7zXoiuqnXviU7tka" version="16.6.6" type="github">
  <diagram name="Page-1" id="5f0bae14-7c28-e335-631c-24af17079c00">
    <mxGraphModel dx="1261" dy="608" grid="1" gridSize="10" guides="1" tooltips="1" connect="1" arrows="1" fold="1" page="1" pageScale="1" pageWidth="1500" pageHeight="1100" background="none" math="0" shadow="0">
      <root>
        <mxCell id="0" />
        <mxCell id="1" parent="0" />
        <mxCell id="YW0rOjqsrMUnEjd8nz0G-19" style="edgeStyle=orthogonalEdgeStyle;rounded=0;orthogonalLoop=1;jettySize=auto;html=1;entryX=1;entryY=0.5;entryDx=0;entryDy=0;exitX=0;exitY=0.5;exitDx=0;exitDy=0;" edge="1" parent="1" source="YW0rOjqsrMUnEjd8nz0G-26" target="YW0rOjqsrMUnEjd8nz0G-6">
          <mxGeometry relative="1" as="geometry">
            <mxPoint x="995" y="450" as="sourcePoint" />
          </mxGeometry>
        </mxCell>
        <mxCell id="YW0rOjqsrMUnEjd8nz0G-20" style="edgeStyle=orthogonalEdgeStyle;rounded=0;orthogonalLoop=1;jettySize=auto;html=1;entryX=1;entryY=0.5;entryDx=0;entryDy=0;" edge="1" parent="1" target="YW0rOjqsrMUnEjd8nz0G-4">
          <mxGeometry relative="1" as="geometry">
            <mxPoint x="770" y="600" as="targetPoint" />
            <mxPoint x="830" y="550" as="sourcePoint" />
          </mxGeometry>
        </mxCell>
        <mxCell id="YW0rOjqsrMUnEjd8nz0G-21" style="edgeStyle=orthogonalEdgeStyle;rounded=0;orthogonalLoop=1;jettySize=auto;html=1;entryX=1;entryY=0.5;entryDx=0;entryDy=0;exitX=0;exitY=0.5;exitDx=0;exitDy=0;" edge="1" parent="1" source="YW0rOjqsrMUnEjd8nz0G-28" target="YW0rOjqsrMUnEjd8nz0G-3">
          <mxGeometry relative="1" as="geometry">
            <mxPoint x="830" y="550" as="sourcePoint" />
          </mxGeometry>
        </mxCell>
        <mxCell id="YW0rOjqsrMUnEjd8nz0G-2" value="getRandomCheesCase(_)" style="swimlane;" vertex="1" parent="1">
          <mxGeometry x="270" y="470" width="200" height="200" as="geometry" />
        </mxCell>
        <mxCell id="YW0rOjqsrMUnEjd8nz0G-3" value="timerFunction(_)" style="swimlane;" vertex="1" parent="1">
          <mxGeometry x="560" y="810" width="200" height="200" as="geometry" />
        </mxCell>
        <mxCell id="YW0rOjqsrMUnEjd8nz0G-22" style="edgeStyle=orthogonalEdgeStyle;rounded=0;orthogonalLoop=1;jettySize=auto;html=1;entryX=1;entryY=0.5;entryDx=0;entryDy=0;" edge="1" parent="1" source="YW0rOjqsrMUnEjd8nz0G-4" target="YW0rOjqsrMUnEjd8nz0G-2">
          <mxGeometry relative="1" as="geometry" />
        </mxCell>
        <mxCell id="YW0rOjqsrMUnEjd8nz0G-4" value="newTurn(_)" style="swimlane;" vertex="1" parent="1">
          <mxGeometry x="550" y="460" width="200" height="200" as="geometry" />
        </mxCell>
        <mxCell id="YW0rOjqsrMUnEjd8nz0G-5" value="isTheCaseClickedTheGoodOne(e)" style="swimlane;" vertex="1" parent="1">
          <mxGeometry x="140" y="150" width="220" height="200" as="geometry" />
        </mxCell>
        <mxCell id="YW0rOjqsrMUnEjd8nz0G-23" style="edgeStyle=orthogonalEdgeStyle;rounded=0;orthogonalLoop=1;jettySize=auto;html=1;entryX=1;entryY=0.5;entryDx=0;entryDy=0;" edge="1" parent="1" source="YW0rOjqsrMUnEjd8nz0G-6" target="YW0rOjqsrMUnEjd8nz0G-5">
          <mxGeometry relative="1" as="geometry" />
        </mxCell>
        <mxCell id="YW0rOjqsrMUnEjd8nz0G-6" value="buildChessBoard(_)" style="swimlane;" vertex="1" parent="1">
          <mxGeometry x="450" y="160" width="380" height="200" as="geometry" />
        </mxCell>
        <mxCell id="YW0rOjqsrMUnEjd8nz0G-18" style="edgeStyle=orthogonalEdgeStyle;rounded=0;orthogonalLoop=1;jettySize=auto;html=1;entryX=1.006;entryY=0.081;entryDx=0;entryDy=0;entryPerimeter=0;" edge="1" parent="1" source="YW0rOjqsrMUnEjd8nz0G-7" target="YW0rOjqsrMUnEjd8nz0G-27">
          <mxGeometry relative="1" as="geometry">
            <mxPoint x="1160" y="650" as="targetPoint" />
            <Array as="points">
              <mxPoint x="1180" y="930" />
              <mxPoint x="1180" y="552" />
            </Array>
          </mxGeometry>
        </mxCell>
        <mxCell id="YW0rOjqsrMUnEjd8nz0G-7" value="parameterDisplayCasesNames(displayOn)" style="swimlane;" vertex="1" parent="1">
          <mxGeometry x="1210" y="830" width="270" height="200" as="geometry" />
        </mxCell>
        <mxCell id="YW0rOjqsrMUnEjd8nz0G-15" style="edgeStyle=orthogonalEdgeStyle;rounded=0;orthogonalLoop=1;jettySize=auto;html=1;exitX=0;exitY=0.5;exitDx=0;exitDy=0;entryX=1.014;entryY=0.081;entryDx=0;entryDy=0;entryPerimeter=0;" edge="1" parent="1" source="YW0rOjqsrMUnEjd8nz0G-8" target="YW0rOjqsrMUnEjd8nz0G-27">
          <mxGeometry relative="1" as="geometry">
            <mxPoint x="1160" y="500" as="targetPoint" />
          </mxGeometry>
        </mxCell>
        <mxCell id="YW0rOjqsrMUnEjd8nz0G-8" value="parameterColorView(color)" style="swimlane;" vertex="1" parent="1">
          <mxGeometry x="1230" y="120" width="200" height="200" as="geometry" />
        </mxCell>
        <mxCell id="YW0rOjqsrMUnEjd8nz0G-16" style="edgeStyle=orthogonalEdgeStyle;rounded=0;orthogonalLoop=1;jettySize=auto;html=1;entryX=1;entryY=0.5;entryDx=0;entryDy=0;" edge="1" parent="1" source="YW0rOjqsrMUnEjd8nz0G-10">
          <mxGeometry relative="1" as="geometry">
            <mxPoint x="1160" y="550" as="targetPoint" />
          </mxGeometry>
        </mxCell>
        <mxCell id="YW0rOjqsrMUnEjd8nz0G-10" value="parameterPenalities()" style="swimlane;" vertex="1" parent="1">
          <mxGeometry x="1230" y="350" width="200" height="200" as="geometry" />
        </mxCell>
        <mxCell id="YW0rOjqsrMUnEjd8nz0G-17" style="edgeStyle=orthogonalEdgeStyle;rounded=0;orthogonalLoop=1;jettySize=auto;html=1;entryX=1.004;entryY=0.111;entryDx=0;entryDy=0;entryPerimeter=0;" edge="1" parent="1" source="YW0rOjqsrMUnEjd8nz0G-11" target="YW0rOjqsrMUnEjd8nz0G-27">
          <mxGeometry relative="1" as="geometry">
            <mxPoint x="1160" y="600" as="targetPoint" />
          </mxGeometry>
        </mxCell>
        <mxCell id="YW0rOjqsrMUnEjd8nz0G-11" value="parameterMode()" style="swimlane;" vertex="1" parent="1">
          <mxGeometry x="1230" y="580" width="200" height="200" as="geometry" />
        </mxCell>
        <mxCell id="YW0rOjqsrMUnEjd8nz0G-25" value="start (color, penalities, mode, display,)" style="swimlane;fontStyle=0;childLayout=stackLayout;horizontal=1;startSize=30;horizontalStack=0;resizeParent=1;resizeParentMax=0;resizeLast=0;collapsible=1;marginBottom=0;" vertex="1" parent="1">
          <mxGeometry x="830" y="490" width="330" height="120" as="geometry" />
        </mxCell>
        <mxCell id="YW0rOjqsrMUnEjd8nz0G-26" value="buildChessBoard(color,penalities,mode,display)" style="text;strokeColor=none;fillColor=none;align=left;verticalAlign=middle;spacingLeft=4;spacingRight=4;overflow=hidden;points=[[0,0.5],[1,0.5]];portConstraint=eastwest;rotatable=0;" vertex="1" parent="YW0rOjqsrMUnEjd8nz0G-25">
          <mxGeometry y="30" width="330" height="30" as="geometry" />
        </mxCell>
        <mxCell id="YW0rOjqsrMUnEjd8nz0G-27" value="newTurn()" style="text;strokeColor=none;fillColor=none;align=left;verticalAlign=middle;spacingLeft=4;spacingRight=4;overflow=hidden;points=[[0,0.5],[1,0.5]];portConstraint=eastwest;rotatable=0;" vertex="1" parent="YW0rOjqsrMUnEjd8nz0G-25">
          <mxGeometry y="60" width="330" height="30" as="geometry" />
        </mxCell>
        <mxCell id="YW0rOjqsrMUnEjd8nz0G-28" value="timerFunction()" style="text;strokeColor=none;fillColor=none;align=left;verticalAlign=middle;spacingLeft=4;spacingRight=4;overflow=hidden;points=[[0,0.5],[1,0.5]];portConstraint=eastwest;rotatable=0;" vertex="1" parent="YW0rOjqsrMUnEjd8nz0G-25">
          <mxGeometry y="90" width="330" height="30" as="geometry" />
        </mxCell>
      </root>
    </mxGraphModel>
  </diagram>
</mxfile>
